# xmcd
#
# Track frame offsets:
#	150
#	15728
#	29742
#	44691
#	56331
#	69317
#	82876
#	94726
#	109486
#	125641
#	141023
#	159917
#
# Disc length: 2377 seconds
#
# Revision: 1
# Processed by: cddbd v1.5.2PL0 Copyright (c) Steve Scherf et al.
# Submitted via: audiograbber 1.83.01
#
DISCID=a009470c
DTITLE=Matti Lämsä - Tunteella
DYEAR=2007
DGENRE=Pop
TTITLE0=Tango-kavaljeeri
TTITLE1=Emigrantin Laulu
TTITLE2=Eva
TTITLE3=Ikkunaprinsessa
TTITLE4=Capri
TTITLE5=Se Eikö Todista Että Muutuin
TTITLE6=La Cumparsita
TTITLE7=Mustasukkaisuutta
TTITLE8=Yön Syliin
TTITLE9=Kulkurin Iltatähti
TTITLE10=Nathalie
TTITLE11=Suvisia Suruja
EXTD=TR.
EXTT0=
EXTT1=
EXTT2=
EXTT3=
EXTT4=
EXTT5=
EXTT6=
EXTT7=
EXTT8=
EXTT9=
EXTT10=
EXTT11=
PLAYORDER=
